<?xml version="1.0" encoding="UTF-8"?>
<svg id="Layer_1" data-name="Layer 1" xmlns="http://www.w3.org/2000/svg" xmlns:xlink="http://www.w3.org/1999/xlink" viewBox="0 0 483.2 124.75">
  <defs>
    <radialGradient id="radial-gradient" cx="99.94" cy="88.1" fx="99.94" fy="88.1" r="46.05" gradientTransform="translate(-72.98 -56.89) scale(1.35)" gradientUnits="userSpaceOnUse">
      <stop offset="0" stop-color="#fff"/>
      <stop offset="1" stop-color="#221f20"/>
    </radialGradient>
    <radialGradient id="radial-gradient-2" cx="50.06" cy="57.8" fx="50.06" fy="57.8" r="34.23" gradientTransform="translate(15.99 3.9) scale(.94)" gradientUnits="userSpaceOnUse">
      <stop offset="0" stop-color="#846ca9"/>
      <stop offset="1" stop-color="#221f20"/>
    </radialGradient>
  </defs>
  <circle cx="107.35" cy="18.25" r="18.12" fill="#df0c00"/>
  <g>
    <path d="m119.14,43.01c-2.8,0-5.11,2.08-5.46,4.78l-.04,1.05-1.09,34.15c-.27,8.49-3.84,16.37-10.04,22.19-6.2,5.81-14.29,8.86-22.78,8.59l-37.98-1.22c-8.49-.27-16.37-3.84-22.19-10.04-5.81-6.2-8.87-14.29-8.59-22.78l1.22-37.98c.27-8.49,3.84-16.37,10.04-22.19,5.94-5.57,13.63-8.61,21.74-8.61.35,0,.69,0,1.04.02l33.36,1.07c.1,0,.2,0,.3,0,2.78,0,5.11-1.86,5.67-4.33v-2.29c-.53-2.37-2.69-4.17-5.32-4.32h-.35S45.36.02,45.36.02c-11.42-.37-22.3,3.73-30.63,11.55C6.4,19.39,1.61,29.98,1.24,41.4L.02,79.38c-.37,11.42,3.74,22.3,11.55,30.63,7.81,8.33,18.41,13.13,29.83,13.49l37.98,1.22c.46.01.93.02,1.39.02,22.96,0,41.99-18.29,42.73-41.4l1.1-34.19.03-.98c-.16-2.88-2.56-5.17-5.49-5.17Z" fill="url(#radial-gradient)"/>
    <path d="m93.7,55.88h-17.73c-2.33,0-4.45,1.42-5.38,3.63l-1.91,4.53s0,0,0,0l-7.24-29.53c-.66-2.68-2.99-4.55-5.68-4.56h-.01c-2.68,0-5.02,1.86-5.68,4.53l-5.33,21.4s0,0,0,0h-12.58c-2.72.36-4.82,2.72-4.82,5.59s2.01,5.12,4.64,5.56h16.74c2.69,0,5.03-1.87,5.69-4.54l1.32-5.28,5.99,24.44c.61,2.51,2.71,4.33,5.22,4.54.16.01.32.02.47.02,2.32,0,4.44-1.41,5.38-3.63l6.57-15.56s0,0,0,0h14.55c2.63-.44,4.64-2.76,4.64-5.56s-2.1-5.23-4.82-5.59Z" fill="url(#radial-gradient-2)"/>
    <g>
      <path d="m459.11,14.32v-1.11h8.73v1.11h-3.66v9.23h-1.41v-9.23h-3.66Z"/>
      <path d="m470.02,13.21h1.68l3.96,8.58h.14l3.96-8.58h1.68v10.34h-1.32v-7.86h-.11l-3.64,7.86h-1.27l-3.64-7.86h-.11v7.86h-1.32v-10.34Z"/>
    </g>
    <path d="m160.39,18.7c-1.94-.98-3.89-1.47-5.85-1.47-2.36,0-4.52.58-6.48,1.74-1.96,1.16-3.5,2.74-4.62,4.74-1.12,2-1.68,4.22-1.68,6.66s.56,4.67,1.68,6.69c1.12,2.02,2.66,3.62,4.62,4.8,1.96,1.18,4.12,1.77,6.48,1.77,1.88,0,3.79-.45,5.73-1.35,1.94-.9,3.67-2.11,5.19-3.63l5.58,6.06c-2.24,2.32-4.87,4.16-7.89,5.52-3.02,1.36-6.05,2.04-9.09,2.04-4.12,0-7.86-.95-11.22-2.85-3.36-1.9-6-4.51-7.92-7.83-1.92-3.32-2.88-7.02-2.88-11.1s.98-7.7,2.94-10.98c1.96-3.28,4.65-5.86,8.07-7.74,3.42-1.88,7.21-2.82,11.37-2.82,3.04,0,6.04.63,9,1.89,2.96,1.26,5.48,2.97,7.56,5.13l-5.52,6.78c-1.44-1.72-3.13-3.07-5.07-4.05Z"/>
    <g>
      <path d="m195.37,51.61l-5.33-9.6h-7.73v9.6h-7.58V18.01h14.59c4.38,0,7.78,1.02,10.18,3.05,2.4,2.03,3.6,4.9,3.6,8.62,0,2.59-.54,4.81-1.61,6.65-1.07,1.84-2.63,3.24-4.68,4.2l7.15,11.09h-8.59Zm-13.06-15.94h7.01c2.11,0,3.74-.49,4.87-1.46,1.14-.98,1.7-2.41,1.7-4.3s-.57-3.26-1.7-4.2c-1.14-.94-2.76-1.42-4.87-1.42h-7.01v11.38Z"/>
      <path d="m209.49,18.01h25.58v6.29h-18v7.3h16.18v6.29h-16.18v7.44h18.53v6.29h-26.11V18.01Z"/>
      <path d="m266.37,51.61l-2.64-6.53h-15.55l-2.64,6.53h-7.82l14.59-33.6h7.82l14.35,33.6h-8.11Zm-15.7-12.62h10.61l-5.28-13.06-5.33,13.06Z"/>
      <path d="m271.17,18.01h28.08v6.43h-10.27v27.17h-7.58v-27.17h-10.22v-6.43Z"/>
      <path d="m326.32,19.74c2.75,1.5,4.92,3.58,6.5,6.22,1.58,2.64,2.38,5.58,2.38,8.81s-.79,6.18-2.38,8.83c-1.58,2.66-3.75,4.74-6.5,6.26-2.75,1.52-5.81,2.28-9.17,2.28s-6.42-.76-9.17-2.28c-2.75-1.52-4.92-3.6-6.5-6.24-1.58-2.64-2.38-5.59-2.38-8.86s.79-6.17,2.38-8.81c1.58-2.64,3.74-4.71,6.48-6.22,2.74-1.5,5.8-2.26,9.19-2.26s6.42.75,9.17,2.26Zm-14.26,5.78c-1.6.94-2.86,2.23-3.79,3.86-.93,1.63-1.39,3.42-1.39,5.38s.47,3.79,1.42,5.42c.94,1.63,2.21,2.93,3.79,3.89s3.3,1.44,5.16,1.44,3.56-.47,5.11-1.42c1.55-.94,2.78-2.24,3.7-3.89.91-1.65,1.37-3.46,1.37-5.45s-.46-3.74-1.37-5.38c-.91-1.63-2.14-2.92-3.7-3.86-1.55-.94-3.26-1.42-5.11-1.42s-3.58.47-5.18,1.42Z"/>
      <path d="m360.83,51.61l-5.33-9.6h-7.73v9.6h-7.58V18.01h14.59c4.38,0,7.78,1.02,10.18,3.05,2.4,2.03,3.6,4.9,3.6,8.62,0,2.59-.54,4.81-1.61,6.65-1.07,1.84-2.63,3.24-4.68,4.2l7.15,11.09h-8.59Zm-13.06-15.94h7.01c2.11,0,3.74-.49,4.87-1.46,1.14-.98,1.7-2.41,1.7-4.3s-.57-3.26-1.7-4.2c-1.14-.94-2.76-1.42-4.87-1.42h-7.01v11.38Z"/>
    </g>
    <g>
      <path d="m373.66,13.77h9.68l11.99,23.65,11.88-23.65h9.62v38.5h-7.81v-26.02l-10.95,22.11h-5.61l-11-22.11v26.02h-7.81V13.77Z"/>
      <path d="m452.2,16.22c3.08,1.63,5.47,3.91,7.18,6.82s2.56,6.24,2.56,9.98-.87,7.07-2.61,9.98-4.17,5.19-7.29,6.82c-3.12,1.63-6.67,2.45-10.67,2.45h-16V13.77h16.33c3.92,0,7.42.82,10.5,2.45Zm-4.54,27.23c1.71-1.01,3.03-2.41,3.99-4.21.95-1.8,1.43-3.85,1.43-6.16s-.5-4.38-1.51-6.22c-1.01-1.83-2.38-3.25-4.12-4.26-1.74-1.01-3.71-1.51-5.91-1.51h-7.48v23.87h7.87c2.13,0,4.04-.5,5.75-1.51Z"/>
    </g>
  </g>
</svg>