<?xml version="1.0" encoding="UTF-8"?>
<svg id="Layer_2" data-name="Layer 2" xmlns="http://www.w3.org/2000/svg" xmlns:xlink="http://www.w3.org/1999/xlink" viewBox="0 0 445.84 87.32">
  <defs>
    <radialGradient id="radial-gradient" cx="76.36" cy="76.44" fx="76.36" fy="76.44" r="32.24" gradientTransform="translate(-59.76 -59.82) scale(1.35)" gradientUnits="userSpaceOnUse">
      <stop offset="0" stop-color="#221f20"/>
      <stop offset="1" stop-color="#fff"/>
    </radialGradient>
    <radialGradient id="radial-gradient-2" cx="32.42" cy="38.66" fx="32.42" fy="38.66" r="23.96" gradientTransform="translate(13.65 4.42) scale(.94)" gradientUnits="userSpaceOnUse">
      <stop offset="0" stop-color="#846ca9"/>
      <stop offset="1" stop-color="#221f20"/>
    </radialGradient>
  </defs>
  <g id="Layer_1-2" data-name="Layer 1">
    <g>
      <path d="m83.4,30.11c-1.96,0-3.58,1.46-3.82,3.34l-.03.74-.76,23.91c-.19,5.95-2.69,11.46-7.02,15.53-4.34,4.07-10,6.2-15.95,6.01l-26.59-.85c-5.95-.19-11.46-2.69-15.53-7.02-4.07-4.34-6.21-10-6.01-15.95l.85-26.59c.19-5.95,2.69-11.46,7.02-15.53,4.16-3.9,9.54-6.03,15.22-6.03.24,0,.49,0,.73.01l23.35.75c.07,0,.14,0,.21,0,1.95,0,3.58-1.3,3.97-3.03v-1.61c-.37-1.66-1.88-2.92-3.72-3.03h-.25S31.76.02,31.76.02c-7.99-.26-15.61,2.61-21.44,8.09C4.48,13.57,1.13,20.99.87,28.98L.02,55.57c-.26,7.99,2.62,15.61,8.09,21.44,5.47,5.83,12.89,9.19,20.88,9.44l26.59.85c.32.01.65.02.97.02,16.07,0,29.39-12.81,29.91-28.98l.77-23.93.02-.69c-.11-2.02-1.79-3.62-3.85-3.62Z" fill="url(#radial-gradient)"/>
      <circle cx="75.15" cy="12.78" r="12.69" fill="#df0c00"/>
      <path d="m65.59,39.12h-12.41c-1.63,0-3.11.99-3.77,2.54l-1.34,3.17s0,0,0,0l-5.07-20.67c-.46-1.88-2.09-3.19-3.98-3.19h0c-1.88,0-3.51,1.3-3.98,3.17l-3.73,14.98s0,0,0,0h-8.81c-1.91.25-3.38,1.91-3.38,3.91s1.4,3.58,3.25,3.89h11.72c1.88,0,3.52-1.31,3.98-3.18l.92-3.7,4.19,17.11c.43,1.76,1.9,3.03,3.65,3.18.11,0,.22.01.33.01,1.62,0,3.11-.99,3.77-2.54l4.6-10.89s0,0,0,0h10.18c1.84-.31,3.25-1.93,3.25-3.89s-1.47-3.66-3.37-3.91Z" fill="url(#radial-gradient-2)"/>
      <g>
        <g>
          <path d="m421.75,22.59v-1.11h8.73v1.11h-3.66v9.23h-1.41v-9.23h-3.66Z" fill="#f4e7ff"/>
          <path d="m432.66,21.47h1.68l3.96,8.58h.14l3.96-8.58h1.68v10.34h-1.32v-7.86h-.11l-3.64,7.86h-1.27l-3.64-7.86h-.11v7.86h-1.32v-10.34Z" fill="#f4e7ff"/>
        </g>
        <path d="m123.02,26.97c-1.94-.98-3.89-1.47-5.85-1.47-2.36,0-4.52.58-6.48,1.74-1.96,1.16-3.5,2.74-4.62,4.74-1.12,2-1.68,4.22-1.68,6.66s.56,4.67,1.68,6.69c1.12,2.02,2.66,3.62,4.62,4.8,1.96,1.18,4.12,1.77,6.48,1.77,1.88,0,3.79-.45,5.73-1.35,1.94-.9,3.67-2.11,5.19-3.63l5.58,6.06c-2.24,2.32-4.87,4.16-7.89,5.52-3.02,1.36-6.05,2.04-9.09,2.04-4.12,0-7.86-.95-11.22-2.85-3.36-1.9-6-4.51-7.92-7.83-1.92-3.32-2.88-7.02-2.88-11.1s.98-7.7,2.94-10.98c1.96-3.28,4.65-5.86,8.07-7.74,3.42-1.88,7.21-2.82,11.37-2.82,3.04,0,6.04.63,9,1.89,2.96,1.26,5.48,2.97,7.56,5.13l-5.52,6.78c-1.44-1.72-3.13-3.07-5.07-4.05Z" fill="#f4e7ff"/>
        <g>
          <path d="m158.01,59.88l-5.33-9.6h-7.73v9.6h-7.58V26.28h14.59c4.38,0,7.78,1.02,10.18,3.05,2.4,2.03,3.6,4.9,3.6,8.62,0,2.59-.54,4.81-1.61,6.65-1.07,1.84-2.63,3.24-4.68,4.2l7.15,11.09h-8.59Zm-13.06-15.94h7.01c2.11,0,3.74-.49,4.87-1.46,1.14-.98,1.7-2.41,1.7-4.3s-.57-3.26-1.7-4.2c-1.14-.94-2.76-1.42-4.87-1.42h-7.01v11.38Z" fill="#f4e7ff"/>
          <path d="m172.12,26.28h25.58v6.29h-18v7.3h16.18v6.29h-16.18v7.44h18.53v6.29h-26.11V26.28Z" fill="#f4e7ff"/>
          <path d="m229,59.88l-2.64-6.53h-15.55l-2.64,6.53h-7.82l14.59-33.6h7.82l14.35,33.6h-8.11Zm-15.7-12.62h10.61l-5.28-13.06-5.33,13.06Z" fill="#f4e7ff"/>
          <path d="m233.8,26.28h28.08v6.43h-10.27v27.17h-7.58v-27.17h-10.22v-6.43Z" fill="#f4e7ff"/>
          <path d="m288.95,28c2.75,1.5,4.92,3.58,6.5,6.22,1.58,2.64,2.38,5.58,2.38,8.81s-.79,6.18-2.38,8.83c-1.58,2.66-3.75,4.74-6.5,6.26-2.75,1.52-5.81,2.28-9.17,2.28s-6.42-.76-9.17-2.28c-2.75-1.52-4.92-3.6-6.5-6.24-1.58-2.64-2.38-5.59-2.38-8.86s.79-6.17,2.38-8.81c1.58-2.64,3.74-4.71,6.48-6.22,2.74-1.5,5.8-2.26,9.19-2.26s6.42.75,9.17,2.26Zm-14.26,5.78c-1.6.94-2.86,2.23-3.79,3.86-.93,1.63-1.39,3.42-1.39,5.38s.47,3.79,1.42,5.42c.94,1.63,2.21,2.93,3.79,3.89s3.3,1.44,5.16,1.44,3.56-.47,5.11-1.42c1.55-.94,2.78-2.24,3.7-3.89.91-1.65,1.37-3.46,1.37-5.45s-.46-3.74-1.37-5.38c-.91-1.63-2.14-2.92-3.7-3.86-1.55-.94-3.26-1.42-5.11-1.42s-3.58.47-5.18,1.42Z" fill="#f4e7ff"/>
          <path d="m323.46,59.88l-5.33-9.6h-7.73v9.6h-7.58V26.28h14.59c4.38,0,7.78,1.02,10.18,3.05,2.4,2.03,3.6,4.9,3.6,8.62,0,2.59-.54,4.81-1.61,6.65-1.07,1.84-2.63,3.24-4.68,4.2l7.15,11.09h-8.59Zm-13.06-15.94h7.01c2.11,0,3.74-.49,4.87-1.46,1.14-.98,1.7-2.41,1.7-4.3s-.57-3.26-1.7-4.2c-1.14-.94-2.76-1.42-4.87-1.42h-7.01v11.38Z" fill="#f4e7ff"/>
        </g>
        <g>
          <path d="m336.29,22.04h9.68l11.99,23.65,11.88-23.65h9.62v38.5h-7.81v-26.02l-10.95,22.11h-5.61l-11-22.11v26.02h-7.81V22.04Z" fill="#f4e7ff"/>
          <path d="m414.83,24.48c3.08,1.63,5.47,3.91,7.18,6.82s2.56,6.24,2.56,9.98-.87,7.07-2.61,9.98-4.17,5.19-7.29,6.82c-3.12,1.63-6.67,2.45-10.67,2.45h-16V22.04h16.33c3.92,0,7.42.82,10.5,2.45Zm-4.54,27.23c1.71-1.01,3.03-2.41,3.99-4.21.95-1.8,1.43-3.85,1.43-6.16s-.5-4.38-1.51-6.22c-1.01-1.83-2.38-3.25-4.12-4.26-1.74-1.01-3.71-1.51-5.91-1.51h-7.48v23.87h7.87c2.13,0,4.04-.5,5.75-1.51Z" fill="#f4e7ff"/>
        </g>
      </g>
    </g>
  </g>
</svg>